# xmcd CD database file
#
# Track frame offsets:
#	150
#	18900
#	34725
#	63607
#	75735
#	92320
#	106885
#	119995
#	135882
#	166017
#	181325
#	190582
#	212202
#	225352
#
# Disc length: 3181 seconds
#
# Revision: 0
# Processed by: cddbd v1.5.1PL0 Copyright (c) Steve Scherf et al.
# Submitted via: CDex 1.51
#
DISCID=a90c6b0e
DTITLE=Leeds University Dance Band - Lowering the Tone
DYEAR=1999
DGENRE=Jazz
TTITLE0=This Could Be the Start of Something Big
TTITLE1=My Baby Just Cares For Me
TTITLE2=Sunrise Sunset
TTITLE3=It Had To Be You
TTITLE4=Afterburner
TTITLE5=Mad About the Boy
TTITLE6=Road to Kenya
TTITLE7=That Ole Devil Called Love
TTITLE8=Cruisin' for a Bluesin'
TTITLE9=Cute
TTITLE10=Almost Like Being In Love
TTITLE11=Midnight Newsroom
TTITLE12=The Flintstones Theme
TTITLE13=Theme from New York, New York
EXTD=YEAR: 1999
EXTT0=
EXTT1=
EXTT2=
EXTT3=
EXTT4=
EXTT5=
EXTT6=
EXTT7=
EXTT8=
EXTT9=
EXTT10=
EXTT11=
EXTT12=
EXTT13=
PLAYORDER=
